<svg width="24" height="24" viewBox="0 0 24 24" xmlns="http://www.w3.org/2000/svg">
  <path fill="#424242" d="M12 3C8.5 3 5.5 5 5.5 8.5c0 1.5 1 3 2.5 4L6.5 15c-.5.5-.5 1.5 0 2s1.5.5 2 0l2.5-2.5c.5.5 1.5.5 2 0s.5-1.5 0-2L10.5 10c1-.5 2-1.5 2-2.5 0-1.5-1.5-2.5-3-2.5zm-1 4c.5 0 1 .5 1 1s-.5 1-1 1-1-.5-1-1 .5-1 1-1z"/>
  <path fill="#424242" d="M19.5 8c-1.5 0-2.5 1-3 2l-3.5 7c-.5 1-1.5 2-3 2s-2.5-1-3-2l-1 2c-.5 1 0 2 1 2.5s2 0 2.5-1l1-2c1.5 1 3 1 4.5 0s2.5-3 3-4.5l1.5-3c.5-1 0-2-1-2.5-.5-.5-.5-.5-1-.5z"/>
</svg> 